# xmcd
#
# Track frame offsets:
# 150
# 17559
# 36348
# 44139
# 58803
# 76260
# 98811
# 115117
# 135631
# 158403
# 170660
# 182351
# 198343
# 214825
# 230065
# 252457
# 268484
#
# Disc length: 3791 seconds
#
#
# Revision: 1
# Processed by: cddbd v1.5.2PL0 Copyright (c) Steve Scherf et al.
# Submitted via: FreeRIP 2.945 
#
DISCID=f30ecd11
DTITLE=Various Artist - Jazz In The City [CD1]
DYEAR=2006
DGENRE=Jazz
TTITLE0=Tony Bennett and k d lang - Dream A Little Dream Of Me
TTITLE1=Charlie Hunter and Norah Jones - More Than This
TTITLE2=George Michael - My Baby Just Cares For Me
TTITLE3=Natalie Cole - What A Difference A Day Makes
TTITLE4=Laura Fygi - Eternal Flame
TTITLE5=Diana Krall - Frim Fram Sauce
TTITLE6=Jane Monheit - Honeysuckle Rose
TTITLE7=Jamie Cullum - It Ain't Necessarily So
TTITLE8=Chris Botti and Shawn Colvin - All Would Envy
TTITLE9=Cyndi Lauper - At Last
TTITLE10=Bryan Ferry - As Time Goes By
TTITLE11=Amber Claire - It's A Lovely Day
TTITLE12=Mandy Moore - Secret Love
TTITLE13=Tuck and Patt - In My Life
TTITLE14=Simply Red - Love For Sale
TTITLE15=Mark Sholtez - All I Want Is You
TTITLE16=Lara Fabian and Mario Frangoulis/So In Love
EXTD=cd
EXTT0=
EXTT1=
EXTT2=
EXTT3=
EXTT4=
EXTT5=
EXTT6=
EXTT7=
EXTT8=
EXTT9=
EXTT10=
EXTT11=
EXTT12=
EXTT13=
EXTT14=
EXTT15=
EXTT16=
PLAYORDER=
